<?xml version="1.0" encoding="utf-8"?>
<?xml-stylesheet type="text/xsl" href="rss1.xsl"?>
<rss version="2.0" xmlns:atom="http://www.w3.org/2005/Atom" xmlns:content="http://purl.org/rss/1.0/modules/content/" xmlns:dc="http://purl.org/dc/elements/1.1/" xmlns:media="http://search.yahoo.com/mrss/">
<channel>
 <title>Getty</title>
 <link>http://www.gettyimg.com/</link>
 <atom:link href="http://www.gettyimg.com/" rel="self" type="application/rss+xml" />

 
                <item>
                <title><![CDATA[【UPSCALED】The Crystal Method - Born Too Slow [1080p AI Upscale | PCM 48 kHz | DTS-ES 6.1]]]></title>
                <link><![CDATA[https://sharemania.us/threads/the-crystal-method-born-too-slow-1080p-ai-upscale-pcm-48-khz-dts-es-6-1.249632/]]></link>
                <description><![CDATA[<article>
<blockquote class="messageText SelectQuoteContainer ugc baseHtml">
<img src="https://images2.imgbox.com/2c/80/8K5XG2q0_o.jpg" class="bbCodeImage LbImage" alt="[​IMG]" data-url="https://images2.imgbox.com/2c/80/8K5XG2q0_o.jpg" style=""><br>
<br>
<b>Genre: <span style="color: #0059b3">Electronic</span> <br>
Style: <span style="color: #0059b3">House, Tech House</span> <br>
Year: <span style="color: #0059b3">2003</span> <br>
Source: <span style="color: #0059b3">DVD, Legion of Boom</span></b><br>
<br>
"<b>Born Too Slow</b>" is the first single released from The Crystal Method's third studio album, <i>Legion of Boom</i>. The song features the vocals of Kyuss lead singer John Garcia and guitar by Limp Bizkit's Wes Borland. The song was first featured on EA's <i>Need for Speed: Underground</i> in 2003, with the single being released later that year. The song has also been featured in <i>Gran Turismo 4</i> and <i>Donkey Konga 2</i>. In 2006, it was featured in the movie <i>Annapolis</i>. It is also in the drama The O.C.<br>
<br>
The music video was directed by Gore Verbinski, director of such films as <i>The Mexican</i>, <i>The Ring</i>, and the <i>Pirates of the Caribbean</i> series. Mr. Verbinski liked the song so much, he asked The Crystal Method if he could direct the video for it. Wes Borland makes a cameo appearance as a man using a pay phone. Fitness expert Billy Blanks Jr. starred in the video as the silver man. Scott Kirkland and Ken Jordan also cameo as the two men in line after the silver man gets his drink.<br>
<br>
<b>Release Info</b><br>
The video track is upscaled from 480i to 1080p with Topaz Video AI and encoded to AVC.<br>
The audio tracks are ripped from the DVD release of Legion of Boom and left as is.<br>
The timed lyrics are created from scratch. Enable the subtitles to see the lyrics.<br>
<br>
<div class="ToggleTriggerAnchor bbCodeSpoilerContainer">
<button type="button" class="button bbCodeSpoilerButton ToggleTrigger Tooltip JsOnly" data-target="> .SpoilerTarget"><span>Spoiler: <span class="SpoilerTitle">Media Info</span></span></button>
<div class="SpoilerTarget bbCodeSpoilerText">
<div class="bbCodeBlock bbCodeCode">
<div class="type">Code:</div>
<pre>General
Unique ID                      : 152110173208862432837268334731244521488 (0x726F5A8EE4D5F7681882790806AEC810)
Complete name                  : The Crystal Method - Born Too Slow.mkv
Format                         : Matroska
Format version                 : Version 4 / Version 2
File size                      : 512 MiB
Duration                       : 3 min 52 s
Overall bit rate mode          : Variable
Overall bit rate               : 18.5 Mb/s
Frame rate                     : 29.970 FPS
Encoded date                   : 2024-07-11 16:22:22 UTC
Writing application            : mkvmerge v85.0 ('Shame For You') 64-bit
Writing library                : libebml v1.4.5 + libmatroska v1.7.1

Video
ID                             : 1
Format                         : AVC
Format/Info                    : Advanced Video Codec
Format profile                 : High@L4
Format settings                : CABAC / 4 Ref Frames
Format settings, CABAC         : Yes
Format settings, Reference fra : 4 frames
Codec ID                       : V_MPEG4/ISO/AVC
Duration                       : 3 min 51 s
Bit rate mode                  : Variable
Bit rate                       : 15.5 Mb/s
Maximum bit rate               : 16.0 Mb/s
Width                          : 1 920 pixels
Height                         : 1 080 pixels
Display aspect ratio           : 16:9
Frame rate mode                : Constant
Frame rate                     : 29.970 (29970/1000) FPS
Original frame rate            : 29.970 (30000/1001) FPS
Color space                    : YUV
Chroma subsampling             : 4:2:0
Bit depth                      : 8 bits
Scan type                      : Progressive
Bits/(Pixel*Frame)             : 0.249
Stream size                    : 428 MiB (84%)
Default                        : Yes
Forced                         : No
Color range                    : Limited

Audio #1
ID                             : 2
Format                         : PCM
Format settings                : Little / Signed
Codec ID                       : A_PCM/INT/LIT
Duration                       : 3 min 52 s
Bit rate mode                  : Constant
Bit rate                       : 1 536 kb/s
Channel(s)                     : 2 channels
Sampling rate                  : 48.0 kHz
Frame rate                     : 25.000 FPS (1920 SPF)
Bit depth                      : 16 bits
Stream size                    : 42.6 MiB (8%)
Title                          : Lossless 16-bit 48 kHz
Language                       : English
Default                        : Yes
Forced                         : No

Audio #2
ID                             : 3
Format                         : DTS ES XCh
Format/Info                    : Digital Theater Systems
Commercial name                : DTS-ES Discrete
Codec ID                       : A_DTS
Duration                       : 3 min 52 s
Bit rate mode                  : Constant
Bit rate                       : 1 510 kb/s
Channel(s)                     : 7 channels / 7 channels / 6 channels
Channel layout                 : C L R Ls Rs Cb LFE / C L R Ls Rs Cb LFE / C L R Ls Rs LFE
Sampling rate                  : 48.0 kHz
Frame rate                     : 93.750 FPS (512 SPF)
Bit depth                      : 24 bits
Compression mode               : Lossy
Stream size                    : 41.8 MiB (8%)
Title                          : DTS-ES 6.1
Language                       : English
Default                        : No
Forced                         : No

Text
ID                             : 4
Format                         : UTF-8
Codec ID                       : S_TEXT/UTF8
Codec ID/Info                  : UTF-8 Plain Text
Duration                       : 3 min 11 s
Bit rate                       : 40 b/s
Frame rate                     : 0.188 FPS
Count of elements              : 36
Stream size                    : 969 Bytes (0%)
Title                          : Lyrics
Language                       : English
Default                        : No
Forced                         : No
</pre>
</div></div>
</div><br>
<b>Note to the peeps @ RuTracker: Give credit if you post the work of someone else!</b><br>
- Hurby4 aka ADHDerby<br>
<br>
<div class="bbCodeBlock bbCodeVfcHH HiddenContent">
<div class="attribution type">Hidden Content:</div>
<blockquote>You must reply before you can see the hidden data contained here.</blockquote>
</div>
<div class="messageTextEndMarker">&nbsp;</div>
</blockquote>
</article>]]></description>
                <author><![CDATA[ADHDerby]]></author>
                </item>

                
                <item>
                <title><![CDATA[【UPSCALED】Avril Lavigne - Complicated [4K AI Upscale | HEVC 10-bit | PCM 24-bit 48 kHz | DD+ Dolby Atmos]]]></title>
                <link><![CDATA[https://sharemania.us/threads/avril-lavigne-complicated-4k-ai-upscale-hevc-10-bit-pcm-24-bit-48-khz-dd-dolby-atmos.249631/]]></link>
                <description><![CDATA[<article>
<blockquote class="messageText SelectQuoteContainer ugc baseHtml">
<img src="https://images2.imgbox.com/d8/d5/uMoFNBrp_o.jpg" class="bbCodeImage LbImage" alt="[​IMG]" data-url="https://images2.imgbox.com/d8/d5/uMoFNBrp_o.jpg" style=""><br>
<br>
<b>Genre: <span style="color: #0059b3">Rock</span> <br>
Style: <span style="color: #0059b3">Alternative Rock, Pop Rock</span> <br>
Year: <span style="color: #0059b3">2002</span> <br>
Video Source: <span style="color: #0059b3">Apple Music, thanks SonMaxime</span><br>
Audio Source: <span style="color: #0059b3">Qobuz &amp; Apple Music, thanks moi &amp; SonMaxime</span></b><br>
<br>
"<b>Complicated</b>" is the debut single by Canadian singer-songwriter Avril Lavigne from her debut album, <i>Let Go</i> (2002). It was released on 11 March 2002 by Arista Records. Lavigne and production team the Matrix (Lauren Christy, Scott Spock, and Graham Edwards) are credited as writers. Production on the song was helmed by the Matrix. According to Lavigne, the song is about being honest with oneself rather than "putting on a face".<br>
<br>
"Complicated" received positive reviews from music critics, who praised the song as infectious pop rock. It peaked at number two on the <i>Billboard</i> Hot 100, ultimately selling 1.1 million copies in the US. The song also spent a consecutive sixteen weeks at number one on the <i>Billboard</i> Adult Top 40 chart, breaking a previous record held by Natalie Imbruglia's "Torn". Internationally, "Complicated" topped the charts in Australia, Ireland, New Zealand, and Norway, with the song peaking in the top five in over twenty countries. "Complicated" was nominated for two Grammy Awards for Song of the Year and Best Female Pop Vocal Performance.<br>
<br>
The video for "Complicated", directed by the Malloys, features Lavigne and the band harassing shoppers and employees, generally causing havoc around a mall. This is intercut with footage of Lavigne performing the song at a skatepark while playing the guitar, with her band performing with her. People can be seen skateboarding around Lavigne as she and her band perform the song.<br>
The video was shot 4-5 March 2002 at Eagle Rock Plaza, Los Angeles. During the shooting, the mall remained open. It was ranked at number 41 on <i>Billboard</i>'s 100 Greatest Music Videos of the 21st Century and as of June 2023, the video has over 600 million views on YouTube.<br>
<br>
<b>Release Info</b><br>
The video track is upscaled to 4K with Topaz Video AI and encoded to HEVC 10-bit.<br>
I've removed the intro of the video to let it match the album version of the song.<br>
The PCM track (Qobuz Hi-Res, 24-bit 48 kHz) is synced with Adobe Audition.<br>
The Atmos track is synced by muxing (modified delay, no quality loss).<br>
The timed lyrics are synced. Enable the subtitles to see the lyrics.<br>
<br>
<div class="ToggleTriggerAnchor bbCodeSpoilerContainer">
<button type="button" class="button bbCodeSpoilerButton ToggleTrigger Tooltip JsOnly" data-target="> .SpoilerTarget"><span>Spoiler: <span class="SpoilerTitle">Media Info</span></span></button>
<div class="SpoilerTarget bbCodeSpoilerText">
<div class="bbCodeBlock bbCodeCode">
<div class="type">Code:</div>
<pre>General
Unique ID                      : 121632600129654893851856274602844710869 (0x5B819630AEC168925EE94DAE284B67D5)
omplete name                  : Avril Lavigne - Complicated.mkv
Format                         : Matroska
Format version                 : Version 4 / Version 2
File size                      : 668 MiB
Duration                       : 4 min 5 s
Overall bit rate               : 22.8 Mb/s
Frame rate                     : 23.976 FPS
Encoded date                   : 2024-07-11 13:26:11 UTC
Writing application            : mkvmerge v85.0 ('Shame For You') 64-bit
Writing library                : libebml v1.4.5 + libmatroska v1.7.1

Video
ID                             : 1
Format                         : HEVC
Format/Info                    : High Efficiency Video Coding
Format profile                 : Main 10@L5@Main
Codec ID                       : V_MPEGH/ISO/HEVC
Duration                       : 4 min 4 s
Bit rate                       : 19.8 Mb/s
Width                          : 2 848 pixels
Height                         : 2 160 pixels
Display aspect ratio           : 4:3
Frame rate mode                : Constant
Frame rate                     : 23.976 (24000/1001) FPS
Color space                    : YUV
+Chroma subsampling             : 4:2:0
Bit depth                      : 10 bits
Bits/(Pixel*Frame)             : 0.134
Stream size                    : 578 MiB (87%)
Default                        : Yes
Forced                         : No
Color range                    : Limited
Color primaries                : BT.709
Transfer characteristics       : BT.709
Matrix coefficients            : BT.709

Audio #1
ID                             : 2
Format                         : PCM
Format settings                : Little / Signed
Codec ID                       : A_PCM/INT/LIT
Duration                       : 4 min 5 s
Bit rate mode                  : Constant
Bit rate                       : 2 304 kb/s
Channel(s)                     : 2 channels
Sampling rate                  : 48.0 kHz
Frame rate                     : 25.001 FPS (1920 SPF)
Bit depth                      : 24 bits
Stream size                    : 67.3 MiB (10%)
Title                          : Lossless 24-bit 48 kHz
Language                       : English
Default                        : Yes
Forced                         : No

Audio #2
ID                             : 3
Format                         : E-AC-3 JOC
Format/Info                    : Enhanced AC-3 with Joint Object Coding
Commercial name                : Dolby Digital Plus with Dolby Atmos
Codec ID                       : A_EAC3
Duration                       : 4 min 5 s
Bit rate mode                  : Constant
Bit rate                       : 768 kb/s
Channel(s)                     : 6 channels
Channel layout                 : L R C LFE Ls Rs
Sampling rate                  : 48.0 kHz
Frame rate                     : 31.250 FPS (1536 SPF)
Compression mode               : Lossy
Delay relative to video        : 233 ms
Stream size                    : 22.4 MiB (3%)
Title                          : Dolby Atmos
Language                       : English
Service kind                   : Complete Main
Default                        : No
Forced                         : No
Complexity index               : 16
Number of dynamic objects      : 15
Bed channel count              : 1 channel
Bed channel configuration      : LFE
Dialog Normalization           : -23 dB
compr                          : -0.28 dB
dmixmod                        : Lo/Ro
ltrtcmixlev                    : -3.0 dB
ltrtsurmixlev                  : -3.0 dB
lorocmixlev                    : -3.0 dB
lorosurmixlev                  : -3.0 dB
dialnorm_Average               : -23 dB
dialnorm_Minimum               : -23 dB
dialnorm_Maximum               : -23 dB

Text
ID                             : 4
Format                         : UTF-8
Codec ID                       : S_TEXT/UTF8
Codec ID/Info                  : UTF-8 Plain Text
Duration                       : 3 min 56 s
Bit rate                       : 78 b/s
Frame rate                     : 0.309 FPS
Count of elements              : 73
Stream size                    : 2.27 KiB (0%)
Title                          : Lyrics
Language                       : English
Default                        : No
Forced                         : No
</pre>
</div></div>
</div><br>
<b>Note to the peeps @ RuTracker: Give credit if you post the work of someone else!</b><br>
- Hurby4 aka ADHDerby<br>
<br>
<div class="bbCodeBlock bbCodeVfcHH HiddenContent">
<div class="attribution type">Hidden Content:</div>
<blockquote>You must reply before you can see the hidden data contained here.</blockquote>
</div>
<div class="messageTextEndMarker">&nbsp;</div>
</blockquote>
</article>]]></description>
                <author><![CDATA[ADHDerby]]></author>
                </item>

                
                <item>
                <title><![CDATA[【Albums (lossless)】FLAC - ENHYPEN – ROMANCE : UFLAC 24-Bit 44.1kHz (Hi-Res)NTOLD]]></title>
                <link><![CDATA[https://sharemania.us/threads/enhypen-%E2%80%93-romance-uflac-24-bit-44-1khz-hi-res-ntold.249634/]]></link>
                <description><![CDATA[<article>
<blockquote class="messageText SelectQuoteContainer ugc baseHtml">
Album Information<br>
Artist Name: ENHYPEN<br>
Sort name: 엔하이픈<br>
Title: ROMANCE : UNTOLD<br>
Genre: Dance<br>
Release date: 2024.07.12<br>
Total length: 25:51<br>
Type: Album<br>
<br>
Tracklist (25:51):<br>
1. Moonstruck (02:38)<br>
2. XO (Only If You Say Yes) (03:08)<br>
3. Your Eyes Only (02:20)<br>
4. Hundred Broken Hearts (03:21)<br>
5. Brought The Heat Back (02:56)<br>
6. Paranormal (02:35)<br>
7. Royalty (02:50)<br>
8. Highway 1009 (02:55)<br>
9. XO (Only If You Say Yes) (English Ver.) Feat. JVKE (03:08)<br>
10. Highway 1009 (Narr Ver.) (CD Only) (00:00)<br>
<br>
<div class="bbCodeBlock bbCodeVfcHH HiddenContent">
<div class="attribution type">Hidden Content:</div>
<blockquote>You must reply before you can see the hidden data contained here.</blockquote>
</div>
<div class="messageTextEndMarker">&nbsp;</div>
</blockquote>
</article>]]></description>
                <author><![CDATA[Sergiote12]]></author>
                </item>

                
                <item>
                <title><![CDATA[【Requests】[REQ AUD] - Rainbow - Rising]]></title>
                <link><![CDATA[https://sharemania.us/threads/rainbow-rising.249633/]]></link>
                <description><![CDATA[<article>
<blockquote class="messageText SelectQuoteContainer ugc baseHtml">
Does anyone can share this one please ?<br>
<br>
<a href="https://www.qobuz.com/fr-fr/album/rising-rainbow/0073145473612" target="_blank" class="externalLink" rel="nofollow">https://www.qobuz.com/fr-fr/album/rising-rainbow/0073145473612</a>
<div class="messageTextEndMarker">&nbsp;</div>
</blockquote>
</article>]]></description>
                <author><![CDATA[Ronnie286]]></author>
                </item>

                </channel></rss>